<svg xmlns="http://www.w3.org/2000/svg" width="256" height="256" viewBox="0 0 256 256" fill="none" role="img" aria-labelledby="title desc">
  <title id="title">Stackpine Favicon</title>
  <desc id="desc">Stackpine monogram icon</desc>
  <defs>
    <linearGradient id="bg" x1="32" y1="24" x2="224" y2="232" gradientUnits="userSpaceOnUse">
      <stop stop-color="#1F80F5"/>
      <stop offset="1" stop-color="#1255AE"/>
    </linearGradient>
  </defs>
  <rect x="16" y="16" width="224" height="224" rx="56" fill="url(#bg)"/>
  <path d="M84 84h58c18 0 30 11 30 27c0 12 -7 21 -18 24c15 3 24 13 24 27c0 18 -14 30 -34 30h-60V84Zm32 24v18h20c8 0 12 -3 12 -9c0 -6 -4 -9 -12 -9h-20Zm0 42v20h24c8 0 13 -4 13 -10c0 -7 -5 -10 -13 -10h-24Z" fill="white"/>
  <circle cx="84" cy="64" r="8" fill="white" fill-opacity="0.9"/>
</svg>
